/* XPM */
static char *Metal_Box__1_1725378110[] = {
/* columns rows colors chars-per-pixel */
"64 64 14 1 ",
"  c gray14",
". c gray18",
"X c #323232",
"o c gray12",
"O c #343434",
"+ c #353535",
"@ c #191919",
"# c #282828",
"$ c #444444",
"% c gray42",
"& c #5A5A5A",
"* c #4C4C4C",
"= c gray23",
"- c #8B8B8B",
/* pixels */
"@@@@@@@@@@@@@@@@@@@@@@@@@@@@@@@@@@@@@@@@@@@@@@@@@@@@@@@@@@@@@@@@",
"#..........# .....................................###..........#",
"#++++++++O+.#XX+OOO+OOOOOO+OOOOOO+OOOOOO+OOO+OOO+XX#.+O++++++++#",
"#XXXXXXXXXO.#.XXXXXXXXXXXXXXXXXXXXXXXXXXXXXXXXXXXX.#.OXXXXXXXXO#",
"#OOOXXOOXXO.#.XOOOOOOOOOOOOOOOOOOOOOOOOOOOOOOOOOOXX#.OXOXXOOXOO#",
"#OXOOXOOOXO. #..................................... .OXOOXOOOXO#",
"#OOOOOOOOO+.$&%%%%%%%%%%%%%%%%%%%%%%%%%%%%%%%%%%%%%$.+XOOOOOOOO#",
"#OOOOOOOOXO. #..XXXXXXXXXXXXXXXXXXXXXXXXXXXXXXXXX.# .OXOOOOOOO+#",
"#OOOOXOOOXO.o@@oooooooooooooooooooooooooooooooooo@@@.OXOOXOXOOO#",
"#++++++++++X# @o                                 o@oX++++++++++#",
" .....##...##X#@o                               o@ ##....#.#..# ",
"$%%%&%%%%&%&..O#@o                             o@ X.&%%%&%%%&%%$",
"&%%%%%%&%-%%=.++#@o                           o@ +.=%%%%-&%%%%%&",
" #    @@@$= XX .+#@o                         o@ +.X.# X*@@    # ",
".+OOOO oo &$..o X+#@o                       o@ +#@ +.$&#@ XOOO+.",
".OXOOO o oo&$.$=XO+#@o                     o@ +XX+X.$&#oo OXOXO.",
".OXXOO o  oo&$X+XXX+#@o                   o@ +OX+$X$&#o o OOOXO.",
".OXXOO o   oo&$.+XXX+#@o                 o@ +XXOO.$&#o  o OOXXO.",
".OXXOO o    oo&$.+XO++#@o               o@ ++XX+.$&#o   o OXXXO.",
".OXOOO o     oo&$.+. #+#@o             o@ O#.O+.$&#o    o OOXOO.",
".OXXXO o      oo&$.#o#X+#@o           o@ +.@oO.$&#o     o OOXXO.",
".OXXXO o       oo&$X$=XO+#@o         o@ +XX$=.$&#o      o OXXXO.",
".OXOOO o        oo&$.OOOX+#@o       o@ +XOX=X$&#o       o OOOOO.",
".OXXOO o         o &$.+XOX+#@o     o@ +XXX+.$&#o        o OOXXO.",
".OXXXO o          oo&$.OOOX+#@o   o@ ++XXO.$&#o         o OOXXO.",
".OXOOO o           oo&$.+#o.+#@ooo@ O##O+.$&#o          o OXOXO.",
".OXXOO o            oo&$..#.X+#@o@ +.ooX.$&#o           o OOXXO.",
".OXXOO o             oo&$O$+XX+#@ +XX$=.$&#o            o OOXXO.",
".OXOXO o              oo&$.OOXXOXOOOX+X$&#o             o OOOXO.",
".OXOOO o               oo&$.OOOXOXOOO.$&#o              o OXOXO.",
".OXOOO o                oo&*XOXOOOOOX$&#o               o OXXOO.",
".OXXXO o                 o *=X+#o#+X+*#o                o OOOXO.",
".OXOXO o                  o@.OX.#.XOXo@                 o OOOXO.",
".OXOOO o                 o@ XOX+$+XOO#@o                o OXOXO.",
".OXXOO o                o@ +OXOXXXOXX+#@o               o OOXXO.",
".OXXXO o               o@ ++XOOX.XOXOX+#@o              o OOOXO.",
".OXOXO o              o@ O##O+.=%$.+#o.+#@o             o OOOXO.",
".OXOOO o             o@ +.ooX.$&+&$..#.X+#@o            o OOOXO.",
".OXXXO o            o@ +XX$=.$&#@o&$O$+XX+#@o           o OOOXO.",
".OXXXO o           o@ +OXX+X$&#o oo&$.OOOX+#@o          o OOXXO.",
".OXXOO o          o@ +XOX+.$&#o   oo&$.+OOX+#@o         o OOXXO.",
".OXOOO o         o@ ++OX+.$&#o     oo&$.OOOX+#@o        o OOOXO.",
".OXXXO o        o@ +  X+.$&#o       oo&$.+ @.+#@o       o OOXXO.",
".OXXXO o       o@ +X  ..$&#o         oo&$....X+#@o      o OOXXO.",
".OXOOO o      o@ +OX=$.$&#o           oo&$+$OXX+#@o     o OOOOO.",
".OXXOO o     o@ +OXXO.$&#o            #oo&$.OOOX+#@o    o OOXXO.",
".OXOXO o    o@ +XXO+.$&#o               oo&$.OOXO+#@o   o OXOXO.",
".OXOOO o   o@ +OOX+.$&#o                #oo&$.+O..+#@o  o OXXXO.",
".OXOOO o  o@ + o.+.$&#o                   o &$.Xo@.+#@o o OOOXO.",
"#XXXXX ooo@ OX##..$&#o                     oo&$.==XXO#@oo XXXXX#",
"#OXXXX @o@ OXX=$.$&#o                       oo&$+=XXXX#@@o.XXXX#",
"o o o @@@@  #XX.$&#o                        #oo&$.O#   @@@o o  o",
"o          o#X.$&#o                           oo&$.#o         oo",
".++++++++++X#.=&#o                             o &$ X++++++++++.",
"#XXXXXXXXXO. =&#o                               oo*=.+XXXXXXXXX#",
"#OOXXXOOXX+.O&#o                                 o +.OXXXXOOXXO#",
"#XXOOXOOOX+.=#@                                  o@@.OXOOXOOXOO#",
"#OOOOOOOOXOX@@o@@@@@@@@@@@@@@@@@@@@@@@@@@@@@@@@@@@@o.OXOOXOOOO+#",
"#OOOOOOXOOO.  ####################################  .OXXOOOXOOO#",
"#OOOXXOOXXO.#XO++++++++++++++++++++++++++++++++++OX#.OXOXOOXOOO#",
"#OOOOOOOOO+.#.XXOX+OOXOOXOOOOOOOOOOOOOXOOOOOOOXOXX.#.+OOOOOOOOO#",
"#XXXXXXXXXX.#XXOOOOOOOOOOOOOOOOOOOOOOOOOOOOOOOOOOXX#.XXXXXXXXXX#",
"#==========X ...................................... X==========#",
"%-----------*$************************************$$-----------%"
};
