/* XPM */
static char *fbc13a412701417ebc978e7f0d68a789qpn5R1av5svLnEfp[] = {
/* columns rows colors chars-per-pixel */
"64 64 49 1 ",
"  c black",
". c #9FC8D8",
"X c #04060B",
"o c #4F636C",
"O c #4A5DAE",
"+ c #4E86EC",
"@ c #080B11",
"# c #4E85EA",
"$ c #495CAB",
"% c #020203",
"& c #4C80E3",
"* c #161F39",
"= c #4A73CF",
"- c #0D1120",
"; c #2D4074",
": c #3B4A8A",
"> c #4658A4",
", c #33447D",
"< c #12172C",
"1 c #192747",
"2 c #4F88EF",
"3 c #4264B5",
"4 c #3F4F93",
"5 c #4A6CC5",
"6 c #354884",
"7 c #43549C",
"8 c #4A7AD9",
"9 c #222D53",
"0 c #293868",
"q c #26335D",
"w c #4468BC",
"e c #FEFFFF",
"r c #1D2428",
"t c #354348",
"y c #325596",
"u c #2A353A",
"i c #6F8B97",
"p c #385FA6",
"a c #97BCCB",
"s c #7B9AA7",
"d c #14191C",
"f c #5C737E",
"g c #45575E",
"h c #8FAFBC",
"j c #657F8A",
"k c #ECF5F8",
"l c #B0D1DD",
"z c #CFE3EB",
"x c #DDECF2",
/* pixels */
"                                                                ",
"                                                                ",
"                                                                ",
"                                                                ",
"                                                                ",
"                                                                ",
"                                                                ",
"                                                                ",
"                                                                ",
"                                                                ",
"                               %  %%                            ",
"                           %%%%     %%%                         ",
"                          %    %X@@X   %%                       ",
"                         % %1;yp3wwp;*X %%                      ",
"                        %  q8222+2+2+&y*% %                     ",
"                        % -5+####++222281 %%                    ",
"                        % ;+##++&=3py6yp,X %                    ",
"                       % @w+#+861-X%   %%  %%%                  ",
"                       % 1&#+81    X@dd@@X   %%                 ",
"                      % %6+#+,  dgjsshahhsft@ %%                ",
"                      % -3+#&* @j....xeekkxlsr %                ",
"                      % *5#+=- ui....keeeeek.i@ %               ",
"                  %%%   95#+=- tfh...lzzxkkz.au %               ",
"                 %%    %0=#+8< uoja.......l..at                 ",
"                %  *;0X%;=+#&1 rooja....aahssfd %               ",
"                % *=23XX6=##+; @goofiiiijfooot% %               ",
"               % Xp22p%X:5##+3@ rgoooooooooot@ %                ",
"               % -w=8y%X:5####,% rgoooooogtrX  %                ",
"               % <>$O; @4w###+&;% @ruuurd@%   %                 ",
"                 <>$Oq -7O&####&;@   %    X<@ %                 ",
"                 <>$Oq -7O8+###+&3011**10y3=* %                 ",
"                 <>$Oq -7O=+####++#&&&&&+22&1 %                 ",
"               % <>$O0 -7$5########+########9 %                 ",
"               % <>$O; @4$3&###############+q %                 ",
"               % *$$O;%X:OO8+##############&9 %                 ",
"               % *$$O;%X:O$=###############51 %                 ",
"               % *>$O;%X:O$3&############+8O* %                 ",
"               % <>$O;%X:O$$5#+#########+&w$* %                 ",
"               % @4$O,%X:O$$$5&##+++++++&w$>< %                 ",
"               % %,OO,%X:O$$$$35========3$$7- %                 ",
"                % 9OO6XX6O$$$$$$$$$O$O$$$$O:@ %                 ",
"                % <>O:XX6O$$$$$$$$$$OOOOO$O,% %                 ",
"                % %*q9X%,O$$$$$$744444:66>O0 %                  ",
"                 %     %,O$$$$O:-@@@@@XX-7O9 %                  ",
"                  %%%% %,O$$$$Oq      %-;$$* %                  ",
"                     % %,O$$$$O9 %%% %q4$$7- %                  ",
"                     % %;O$$$$$1 % % @4O$O:@ %                  ",
"                      % 0O$$$$$* %   @4$$O,% %                  ",
"                      % 1$$$$$>< % % %,$>>9 %                   ",
"                      % -7OOOO:@ % %% -**<X %                   ",
"                      % %*,:60<  %  %      %%                   ",
"                       %  XXX% %%    %%%%%%                     ",
"                        %%   %%%                                ",
"                          %%%%                                  ",
"                                                                ",
"                                                                ",
"                                                                ",
"                                                                ",
"                                                                ",
"                                                                ",
"                                                                ",
"                                                                ",
"                                                                ",
"                                                                "
};
