/* XPM */
static char *_af7fbe7154c46b0eef62671a395e352VRQIuUmJGpa1SccI[] = {
/* columns rows colors chars-per-pixel */
"64 64 63 1 ",
"  c black",
". c #959597",
"X c #C5C3C5",
"o c #2EEE57",
"O c #144525",
"+ c #88B995",
"@ c #1F2225",
"# c #00E526",
"$ c #07E72C",
"% c #00B62F",
"& c #0AB636",
"* c #33F55B",
"= c #10E532",
"- c #BCC0BD",
"; c #020203",
": c #0EC53B",
"> c #6AE982",
", c #1B1F21",
"< c #17EE3F",
"1 c #B1B4B7",
"2 c #84ED94",
"3 c #26E544",
"4 c #79EC8C",
"5 c #45E75F",
"6 c #868B8E",
"7 c #48F16C",
"8 c #9CBAA5",
"9 c #1CE53C",
"0 c #030405",
"q c #111618",
"w c #3EB65D",
"e c #A8C5AE",
"r c #B6B8B7",
"t c #90EE9F",
"y c #0EC53C",
"u c #2BE34D",
"i c #05E529",
"p c #BDF4C5",
"a c #898E92",
"s c #1CB643",
"d c #63E77A",
"f c #AEF2B9",
"g c #CEF6D4",
"h c #A3F0AF",
"j c #26A54B",
"k c #7E8588",
"l c #28D152",
"z c #262D32",
"x c #DDF8E1",
"c c #50E867",
"v c #0D291A",
"b c #2D3E3B",
"n c #092215",
"m c #36DD61",
"M c #676D71",
"N c #08BF35",
"B c #0BE32E",
"V c #2EE950",
"C c #5D6166",
"Z c #A3A8AC",
"A c #697075",
"S c #0FC73C",
"D c #95C357",
/* pixels */
"                                                                ",
"                                                                ",
"                                                                ",
"                                                                ",
"                                                                ",
"                                                                ",
"                                                                ",
"                                                                ",
"                                                                ",
"                                                                ",
"                                                                ",
"                                                                ",
"                                                                ",
"                                                                ",
"                                                                ",
"                                                                ",
"                                                                ",
"                                                                ",
"                                                                ",
"                                                                ",
"                                                                ",
"                                                                ",
"                      vOOOOOOOOOOOOOOOOOOO0                     ",
"                     vjoooooooooooooooooolO0                    ",
"                    nj<#iiiii#########iii$lO0                   ",
"                    j<####3393955u955Vi###=mn                   ",
"                   qw<####24>2dxp4cxgp=###$mb0                  ",
"                  ,k><####224t>h=Bcf5t=###$78b0                 ",
"                 0k-><####224t>f3#5hu=i###$7eZ,                 ",
"                 06-><####>244>x4ii5tui###$7e1,                 ",
"                 06-><####B2tB>h=#=9ch=###$7e1,                 ",
"                 06-><#####4t#>f395hdp=###$7e1,                 ",
"                 0a-><#####>4#dgp45ggf=###$7e1,                 ",
"                 0a-d<i####9=#=339=339i###=7e1,                 ",
"                 0a-wu<$$$$$$$$$$$$$$$$$$=Vl81,                 ",
"                 0a-wNu******************oSs81,                 ",
"                 06-w%N::y:yy::yy:::::::::%s81,                 ",
"                 06-8w%%%%%%%%%%%%%%%%%%%%s+r1,                 ",
"                 ;Cr-8w&&&&&&&&&&&&&&&&&&s+r-6q      ;          ",
"                  qAr-8+++++++++++++++++++r-az;                 ",
"                   qMrXXXXXXXXXXXXXXXXXXXX-6z;                  ",
"                    qA....................kz;                   ",
"                     q@@@@@@@@@@@@@@@@@@@@,;                    ",
"                                                                ",
"                                                                ",
"                                                                ",
"                                                                ",
"                                                                ",
"                                                                ",
"                                                                ",
"                                                                ",
"                                                                ",
"                                                                ",
"                                                                ",
"                                                                ",
"                                                                ",
"                                                                ",
"                                                                ",
"                                                                ",
"                                                                ",
"                                                                ",
"                                                                ",
"                                                                ",
"                                                                "
};
