/* XPM */
static char *fdc1660d6f6d482cc78f731e3ee558580hHOWd8h1YZOtOD9[] = {
/* columns rows colors chars-per-pixel */
"64 64 87 1 ",
"  c black",
". c #B20204",
"X c #131719",
"o c #7D7F82",
"O c #E10100",
"+ c #060406",
"@ c gray74",
"# c #E20000",
"$ c #B40101",
"% c #E20102",
"& c #DF2A2A",
"* c #F12122",
"= c #F42F30",
"- c #C4C6C7",
"; c #DF0101",
": c #C0C1C4",
"> c #B67070",
", c #AF393F",
"< c #E15556",
"1 c #B03B41",
"2 c #C2C3C3",
"3 c #E60F0E",
"4 c #F3D6D5",
"5 c #EA191A",
"6 c #DC2021",
"7 c #DE4344",
"8 c #DF0606",
"9 c #DD2E2E",
"0 c #767B7E",
"q c #C1AEAE",
"w c #D82829",
"e c #484E53",
"r c #F4DDDC",
"t c #BAA8A7",
"y c #EE5A5A",
"u c #B67071",
"i c #E28181",
"p c #BFC0BF",
"a c #4F565A",
"s c #DE0C0E",
"d c #E9A6A5",
"f c #C99E9F",
"g c #B30B0C",
"h c #EDB9B7",
"j c #B67170",
"k c #E78685",
"l c #1C1B1F",
"z c #0C0B0D",
"x c #0D1114",
"c c #9C9FA0",
"v c #73797C",
"b c #F44849",
"n c #B9908F",
"m c #B72627",
"M c #AAADAF",
"N c #4C5257",
"B c #F0C6C4",
"V c #E26463",
"C c #421F25",
"Z c #EB1C1F",
"A c #2E363A",
"S c #B99A9B",
"D c #C21414",
"F c #626B72",
"G c #B9B7B7",
"H c #D13A41",
"J c #A82E34",
"K c #32191E",
"L c #EF4546",
"P c #C99D9D",
"I c #F44949",
"U c #B44044",
"Y c #5D666D",
"T c #CB1716",
"R c #B13032",
"E c #DD1617",
"W c #5D262E",
"Q c #A08087",
"! c #57262E",
"~ c #C03D43",
"^ c #818B90",
"/ c #D2A7A8",
"( c #F5484A",
") c #B75A59",
"_ c #EB312F",
"` c #B14A4C",
"' c #B21782",
/* pixels */
"                                                                ",
"                                                                ",
"                                                                ",
"                                                                ",
"                                                                ",
"                                                                ",
"                                                                ",
"                                                                ",
"                                                                ",
"                                                                ",
"                                                                ",
"                                                                ",
"                                                                ",
"                                                                ",
"                                                                ",
"                                                                ",
"                                                                ",
"                                                                ",
"                                                                ",
"                                                                ",
"                                                                ",
"                   ++++++++++++++++++++++++                     ",
"                  C111,,,,,,1111,,,,,,,111W                     ",
"                 CJ***********************m!+                   ",
"                KJZ;;O###OO#O#O###OOO#O#OO5HC+                  ",
"               zUZ;;;OOO86sOs68OE&68OO;;;O;3Hl                  ",
"               z~Z;;;%OOwB7;7h68VrBw8OOOOOO37K                  ",
"              Xo<5OO;OOO9rB<<4wii7<d7OOOOO;3LQA                 ",
"             lFqy5OO;O##9rdid4whk;64<O#%##;3I/^A                ",
"             e-qy5O;;OOO9r7V44whk;64<OOOOO;3bP-v                ",
"             e2qy5O;OOOO9r7;<4whk;64<OOOOO;3bf-v                ",
"             e-qy5OO;OOO9r7O<4whk;64<OO%%%;3(f-v                ",
"             N-qy5O;;;;O9r7;<4whk;64<OOOOOO3bf-0                ",
"             N-qy5#OOOOO9r7O<4wViiii9OOOO##3bf-0                ",
"             N-qy5O;;O;O6d9O7dE;VBd6;OOOO#O3If-0                ",
"             a-q<5%O;;;O8s8%8s;O8ss8OO;OOO%3LP-0                ",
"             a-tm&*;;OOO%O%%%%%%O%OO%%OOOO5_Dn-0                ",
"             a-tmD6=======================&Tgn-0                ",
"             a-tm$D&9&&&&&&&&&&&&&&&&&&&&&T$gn-0                ",
"             a-tUg$$$$$$$$$$$$$$$$$$$$$..$$gRS-0                ",
"             e:Gt`g$$$$$$$$$$$$$$$$$$$$.$$.RtG2v                ",
"             Ac2@t).......................1SG2Ma                ",
"             xecp@Suuujjjjjjjuuj>>j>>jjjj>n@pMFl                ",
"              zec@p:::::::::::::::::::::::p@MYl                 ",
"               +ecp@@@@@@@@@@@@@@@@@@@@@@@@MFx                  ",
"                +NoooooooooooooooooooooooooYx                   ",
"                 xXXXXlXlXXXXXXXXXXXXXXXXXXx                    ",
"                                                                ",
"                                                                ",
"                                                                ",
"                                                                ",
"                                                                ",
"                                                                ",
"                                                                ",
"                                                                ",
"                                                                ",
"                                                                ",
"                                                                ",
"                                                                ",
"                                                                ",
"                                                                ",
"                                                                ",
"                                                                ",
"                                                                "
};
