/* XPM */
static char *_393177de2f44412967cc3ca4193ebe8oeFclZbuij1sApcK[] = {
/* columns rows colors chars-per-pixel */
"64 64 34 1 ",
"  c black",
". c #6E0A0B",
"X c #4D0809",
"o c #3F0708",
"O c #210405",
"+ c #320607",
"@ c #4C646D",
"# c #770B0B",
"$ c #C61114",
"% c #030102",
"& c #C81114",
"* c #60090B",
"= c #100505",
"- c #99C8DD",
"; c #AD0F11",
": c #BD1013",
"> c #B61012",
", c #820B0C",
"< c #8C0D0E",
"1 c #273338",
"2 c #990D0F",
"3 c #161C1F",
"4 c #F6F9FA",
"5 c #C21013",
"6 c #63828F",
"7 c #AAD0E0",
"8 c #3F515A",
"9 c #526D77",
"0 c #92BACC",
"q c #779BAA",
"w c #D9EBF2",
"e c #85AFC0",
"r c #BFDDE8",
"t c #92ACB7",
/* pixels */
"                                                                ",
"                                                                ",
"                                                                ",
"                                                                ",
"                                                                ",
"                                                                ",
"                                                                ",
"                                                                ",
"                                                                ",
"                                                                ",
"                           %%%%% %%%%%                          ",
"                         %%           %%%                       ",
"                         %  %O++++++O%  %%                      ",
"                        %  +<>::::::;,+%  %                     ",
"                       %% +;&$$$$$$$$&>*%  %                    ",
"                       % O2&$$$$$&&$$$$5.%  %                   ",
"                      %  *$$$$$:;<#.*****O  %%                  ",
"                      % =2$$$$<o=%     %%    %                  ",
"                      % O;$$$2=  318@9666983  %                 ",
"                      % o;$$5o  1q---rwwwwrt1 %%                ",
"                     % %X;$$>+ 36---7444444401 %                ",
"                    %% %*;$$>O 190--7w444444rq= %               ",
"                %%%%   =*;$$>O 1@6------7777-01 %               ",
"               %%   %  =.;$$>O 1@@60--------e61 %               ",
"               %  O.#o O.;$$>+ 1@@@6qe0eeqq69@3 %               ",
"               % =<&&* O#;$$5X =8@@@@@99@@@@@83 %               ",
"               % +>$$X +#2$$&,% 3@@@@@@@@@@@83  %               ",
"                 +>$5o +#2$$$:o %38@@@@@@@13%  %                ",
"               % +<2<O +#<5$$$2O  %311133=% %  %                ",
"               % o##.O +#,:$$$$,+%     %%%OXo%%%                ",
"               % o###O +##;$$$$$><Xo++oX.<;$,%%                 ",
"               % o###O +##2$$$$$$&$::::$$&$&#%                  ",
"               % o##.O +##<5$$$$$$$$$$$$$$$5.%                  ",
"                %o##.O +##,>$$$$$$$$$$$$$$$:*%                  ",
"                %X##.O +###;$$$$$$$$$$$$$$$>*=                  ",
"                %X##.O +###25$$$$$$$$$$$$$5;*%                  ",
"                %X###O +###,>$$$$$$$$$$$$$5<*%                  ",
"                %X###O o####25$$$$$$$$$$$$;,*%                  ",
"               % X###+ o#####<:$$$$$$$$$$>,#X%                  ",
"               % o###+ +######,2;>::55:;2,##o                   ",
"               % +###+ +#########,,,<<,#####+ %                 ",
"               % =*##o +###################.O %                 ",
"               %  OX*+ O########..#########*= %                 ",
"                %  %=% O.######XOOO+oXooX.#X% %                 ",
"                 %%    =.######O     %%O*##o  %                 ",
"                     % =*#####.O %%% =X.###+                    ",
"                     % %*#####.O   % O.####O                    ",
"                     % %X#####.O   % O.####O %                  ",
"                       %X#####.O % % O.####O %                  ",
"                        o#####.= %   %X...X= %                  ",
"                     %% O.####o% %  % %===% %                   ",
"                      % %+XXX+% %   %%  %  %                    ",
"                      %%  %%%  %%                               ",
"                       %%%    %%                                ",
"                                                                ",
"                                                                ",
"                                                                ",
"                                                                ",
"                                                                ",
"                                                                ",
"                                                                ",
"                                                                ",
"                                                                ",
"                                                                "
};
