/* XPM */
static char *d30f6ced67194f7ba40e9bca553f47300Zk1ljsS4BxstFcr[] = {
/* columns rows colors chars-per-pixel */
"64 64 134 2 ",
"   c #000001",
".  c #01040A",
"X  c #07080C",
"o  c #090A0E",
"O  c #0E1A27",
"+  c #0F1B29",
"@  c #121E2C",
"#  c #15212E",
"$  c #162331",
"%  c #1A2634",
"&  c #1D2936",
"*  c #1E2B39",
"=  c #20272F",
"-  c #202731",
";  c #242B35",
":  c #282F37",
">  c #222E3C",
",  c #282F39",
"<  c #24313E",
"1  c #2B333D",
"2  c #263241",
"3  c #2A3644",
"4  c #2D3946",
"5  c #2E3A49",
"6  c #303741",
"7  c #333B44",
"8  c #323D4C",
"9  c #383F49",
"0  c #35414E",
"q  c #3B424D",
"w  c #364251",
"e  c #3A4554",
"r  c #3D4956",
"t  c #3E4A59",
"y  c #434B55",
"u  c #424D5C",
"i  c #484F59",
"p  c #42505D",
"a  c #45515D",
"s  c #45515F",
"d  c #45515E",
"f  c #49505A",
"g  c #48505B",
"h  c #4A515B",
"j  c #49515C",
"k  c #4B525C",
"l  c #4A525D",
"z  c #4B535E",
"x  c #4C535D",
"c  c #4D545E",
"v  c #4C545F",
"b  c #4E555F",
"n  c #4B535E",
"m  c #435060",
"M  c #445060",
"N  c #445161",
"B  c #455161",
"V  c #455360",
"C  c #465260",
"Z  c #455262",
"A  c #475464",
"S  c #465261",
"D  c #485460",
"F  c #4D5560",
"G  c #4F5660",
"H  c #4E5661",
"J  c #4F5762",
"K  c #485464",
"L  c #485565",
"P  c #495565",
"I  c #4A5664",
"U  c #495666",
"Y  c #4A5767",
"T  c #4B5767",
"R  c #4D5665",
"E  c #4A5564",
"W  c #4C5866",
"Q  c #4D5967",
"!  c #4F5867",
"~  c #4C5A67",
"^  c #4E5A66",
"/  c #4D5967",
"(  c #4B5868",
")  c #4C5969",
"_  c #4D5B68",
"`  c #4F5B69",
"'  c #4E5B6B",
"]  c #4F5B6B",
"[  c #4E5C69",
"{  c #4E5A69",
"}  c #505761",
"|  c #515862",
" . c #505863",
".. c #525963",
"X. c #515964",
"o. c #525A65",
"O. c #535B66",
"+. c #545B65",
"@. c #545C67",
"#. c #565D67",
"$. c #515964",
"%. c #515A69",
"&. c #525E6A",
"*. c #565E69",
"=. c #505C6C",
"-. c #515D6D",
";. c #525E6C",
":. c #535F6D",
">. c #515E6E",
",. c #525D6C",
"<. c #585F69",
"1. c #54616E",
"2. c #58606B",
"3. c #5A616B",
"4. c #5C636D",
"5. c #5E656F",
"6. c #5A626D",
"7. c #576373",
"8. c #576474",
"9. c #566271",
"0. c #586673",
"q. c #5D6570",
"w. c #5F6772",
"e. c #586575",
"r. c #5D6675",
"t. c #5A6574",
"y. c #5D6976",
"u. c #5E6A79",
"i. c #626973",
"p. c #616D7B",
"a. c #66727E",
"s. c #677381",
"d. c #6A7684",
"f. c #6D7985",
/* pixels */
"                                                                                                                                ",
"                                                                                                                                ",
"                                                                                                                                ",
"                                                                                                                                ",
"                                                                                                                                ",
"                                                                                                                                ",
"                                                                                                                                ",
"                                                                                                                                ",
"                                  .                 .                                 .                 .                       ",
"    X             .         .           o                   X                     .               . X                   X       ",
"      . . .     . . . . . .   .   . . .   . . . .     . .   .   .       . . .   .   . . . . .   .         . . . . . .   .     . ",
"9 k b ..<.} k q x i H } H y q H i.9 y b H 9 y y H ..@.g e y H b x b } 9 i 4.g 9 ..g y q g x ..3...y y +.i g ..b 9 i b k b 5.b y ",
"; H X.y @.i X.q k k g y 9 ; ; k w.q e k *.q q H H ......y e b k i q 3 & e w.H 9 i 3.H 3 H X.k X.k b 9 H k g y 7 1 e g k i H b k ",
"& < w D 8 r r.> 3 0 < & > > 3 r %.3 > r 8 < $ e y e 0 &.y > 8 3 & $ > > e s e $ w 8 3 O 8 r y 0 R Q & 3 8 < $ > $ $ 4 r u 8 Q Q ",
"% 2 % * > w t 5 M [ L e L _ 8 5 L 5 w 3 w 4 2 * & > 3 t 8 e >._ t p 9.8 3 t u 8 8 5 t > 2 & > 2 w u 8 Q >.M 8 0.t $ > % > > t e ",
"% w ( 5 e m L 3 u M 8.w u >.$ & & 2 u t >.8 3 L w 5 L A 5 e u _ A 5 t.4 $ * & t t L m * L t 8 t L e 5 M m _ w L t > _ e 5 M M t ",
"2 u _ r > r M & < e u & 5 Q > > & $ t t >.e w Q s 3 8 u 3 % 8 u 8 & >.3 & > % 8 M M L 8 M _ 5 5 u w $ 4 w t $ s u 8 Q L 3 5 u e ",
"8 u D t e s s > 3 > $ > 8 s > 5 e & & 5 e 5 w Q &.3 s _ 5 & 3 $ % 3 t 4 5 e > $ 2 t 5 w M t.8 u M r $ < < & > r u w s 0.4 D s w ",
"3 u &.e e D 1.8 & > > < u L 2 u 0.0 s s D 5 u t D 5 _ _ t & 2 < % r M 8 0 _ D w s Q w 8 u L 3 _ Q _ < 3 > & 5 s r e t L 0 L D &.",
"$ e 1.w 3 u 9.2 e t u < u &.3 t 1.r u L >.0 2 L >.& r Q t 5 s u 3 0 0.8 8 D L e Q &.L & u 9.5 8 u M 3 s u r 3 _ r 2 u >.3 e Q M ",
"> 8 r 8 5 s L 3 u r Q w 5 0 3 t D 3 4 0 e 8 3 e e < M &.8 4 s s u 2 t 2 e D e < e 8 w 3 w M > w M s 4 s r s 3 t e > e L 2 e s e ",
"> 0 4 8 e u 8 > 0 w > 8 8 0 3 8 8 0 0 3 0 2 8 3 8 w t w < 8 e > 3 5 w 3 5 8 8 e 5 8 5 2 2 8 8 t u 8 < w 5 3 8 3 4 3 0 4 8 e w 0 ",
"0 9.>.&.&.D 8 4 >.d.e M >.1.u L _ >.&.p.&.u L 1.>.>.Q t 2 D s.M t >.&.D u _ _ Q u.&.Q s y.&.>.>.u 2 e p.u.8 &.&.>.u y.&.>.M D 0 ",
"& 8 8 5 > $ $ > u Q 2 8 s D < & r t t r Q 0 > e 4 3 $ $ & w _ w > t L 0 % 0 s t r u M & 8 0 5 & $ # 8 M s & r t u 3 5 8 4 < $ @ ",
"& s r e 2 r w 0 r Q 8 3 5 0 & > & w 3 8 >.0 w u r 3 e r 8 w L t > 8 0 3 > < 2 8 3 Q u 8 u t 0 3 M 5 r r Q > 4 0 0 3 t t 0 3 t w ",
"0 M D >.r &.Q % > 0 4 r w D 3 < 5 & 3 0 0 4 t D >.t u y.2 & 3 5 u e M t $ 8 < > 0 e 4 w Q L L e t.w % 3 3 e u w D 0 Q L 1.e >.Q ",
"% 8 r >.3 t Q % 2 @ < s u 0.3 r t.M 4 D t.8 3 r _ w 3 9.2 > & $ t u M M 3 >.>.8 u 1.u 3 w D Q > Q e $ > # 4 D M _ < w e L 3 u Q ",
"@ & & 2 % 5 u % < < # 5 e u e r M M < 0 e & & & > > 2 u < > 3 $ 2 t u e w M Q > < u 8 O & > > & u e $ 3 > % 8 t M $ % < < % w M ",
"% > 3 % < e Q 5 u 1.< 3 0 0 5 e L u u u.9.0 & 3 & & 0 M w w &.0 & 3 t 5 w M Q e t.0.u & 8 < $ 8 t e 3 Q u & 3 w 0 $ 3 3 $ < s L ",
"$ 3 4 3 < M D 2 t &.e M >.t.3 e D Q 3 e Q w & 3 5 & w >.4 8 1.u M 9.9.t 5 t &.5 e L D % < 3 < 3 1.w 4 s _ e t.>.>.& 2 < 3 8 L s ",
"2 Q _ >.8 D D w u 1.5 e e D 8 3 &.D 2 u _ 8 t &.9.e e 1.e s _ e 5 u t u 5 t 9.> t s s 8 &.9.L 3 Q r M M L < s 0 _ 4 &._ &.8 u D ",
"$ 8 3 3 4 2 5 & 5 3 < 8 > 3 3 4 8 4 2 0 w 2 < 4 3 4 3 8 & 3 3 3 3 2 2 5 > 5 e > 8 e 3 & 8 2 5 < 8 4 > 3 8 < 4 > 4 % 0 3 e < 3 3 ",
"2 L L _ 8 M L M >._ _ w M A Y _ s D 2 L p.5 t D L u t L M L 9.L e t &.s Q _ Q 3 r 0.M 8 L M u r _ u M :._ M 0 _ s Q L _ e w L M ",
"2 u L >.5 e M u L M L w u L t r 8 % & u 0.e w s 1.e 8 L u L L M u w L u u 0 & $ w t.L 3 D _ &.2 u _ u _ s D 8 D s M e 3 % 8 >.L ",
"# 0 e 8 & & w t w u t.5 > 5 5 & > > 5 r Q 4 > r w 3 $ 2 m r 8 t.u % 8 8 > % 3 2 t r u % 8 e 8 $ 2 e u 5 M 0.& 4 e 2 & & & % 8 5 ",
"3 e < D > > % > & 3 t 3 ] _ L w L 1.4 4 M e 8 5 e 5 % > & > 2 e 8 r Q Q M r 0.8 4 t r 0 e 8 u & 2 % * 3 0 w e _ L Q w y.u 8 8 t ",
"8 s s D < e >.5 t M ] 8 r t 9.t e 9.% $ $ & s r &.w 3 9.w e L >.8 e s L M 5 t.8 + > % e Q u D & M L 5 u D t 2 D s &.0 s L w _ L ",
"> u u 9.8 t _ t > e m > % 5 t & 4 _ & < > & e u Q t 8 _ _ & 5 u 8 + 3 e 5 & D 4 > 3 @ 3 M s L 5 M L 5 5 e u $ & 8 w % e u 5 M L ",
"$ s 8 5 8 u _ u w >.( & 2 2 % < 3 D 2 5 e & $ 4 e 8 t t >.5 _ _ 8 & 2 % & 4 s 8 2 e e @ > e 8 0 u t.8 t 9.u % 3 > $ < u t + 8 w ",
"4 a.D M 3 u M u u M t.2 & 2 > & u M 5 u 9.e u D Q 8 w M L w _ >.t % > < % 8 D w 8 >.s 0 _ M t 5 u L w L L 1.$ > 2 % 4 M t w _ t ",
"8 p.M y.2 0 t.u 2 t _ 8 e L s 3 t 9.0 u &.e t D 9.w 5 M 9.> t L t 8 u _ 0 4 9.e e Q D 0 L L Q > r t.5 e u D 4 u M s 2 _ M e _ _ ",
"> 1.3 8 2 5 t w 4 t M 2 e w D 0 w e < w r 8 4 8 3 w 2 e M 2 t u 3 4 t e e 3 s 4 0 r w > r 4 w 2 w L 2 w u t > u e u 2 e w > u t ",
"4 u.8 r w u 5 2 e w t w 0 5 2 e e 3 w 8 8 3 8 5 w 8 e t 3 3 e w e 8 e 3 e u 3 4 5 8 4 w 4 8 w w e 3 3 e 8 r 4 u 2 8 w w t r w 5 ",
"q f.&.s t.1.>.t 9.Y 9.L V w 5 1.f.0 u _ 0.r s >._ 9.p._ M L >.>._ s r < u f.M e &.t.D e &.&.>.p.t.L M t.Q >.D u 5 u >._ _ u._ L ",
"# y e u u r >.2 2 e > 2 $ * < r Q 2 3 s t > & w t u e L w 2 8 5 < $ $ > u u r & r t 8 $ w t u u u L & 8 8 < & $ @ 3 w s t t M M ",
"& p < 0 < w _ 5 t M u 3 s t 0 0 L w 3 > 8 2 & > 5 < 5 >.8 w M u 3 e L w w s M > 5 2 5 > & 3 5 2 M M 8 u u r 5 D 0 & > 2 3 5 M M ",
"# 2.7 & w e e 5 L M >.e I 1.% & 5 3 u e >.3 2 0 < 3 e t 3 u u >.s u t.4 $ 5 2 e r u u % w 3 < 8 t 5 w _ D &.8 u.s % 8 3 2 w e 5 ",
"8 a.1.e 8 L L 2 5 t _ 5 r I * < $ & u t >.e e 9.s 4 M >.8 2 e _ w 4 >.< < & # r u _ u 3 &.&.8 t >.u & e u M 3 _ w 8 9.Q 3 u >.t ",
"e [ &.w 3 w 8 % $ 2 & & 4 m % 2 5 @ 3 e M r t M L 2 e w > $ * * % 2 M 3 * 4 & * w u t e t >.2 5 t 3 $ & * > & e e e u _ > w e 5 ",
"8 9.>.r u 9.9.< 3 < & * u L 2 p 9.2 5 0 u 4 w L L 8 9.y.e & > > > 5 M 8 w 1.w * w t w 0 u [ e 1._ &.& < 2 $ 5 u u e u _ w 1.>._ ",
"2 y.:.0 3 r :.3 8 4 8 > u s > e %.e &.0.r.5 8 D K < r D w 3 8 8 > e %.8 4 Q D u r.0.u 3 u &.> 0 K s > 4 8 < 4 &.w 3 L &.> u Q L ",
"1 6.X.q 9 i *.7 k ..@.9 i k 9 i ..q e q i 7 9 i y 1 y H y y X.*.e q b 9 y k y 3 y y y 1 y *.1 e k y q *.H X.1 b q 1 y H ; y H y ",
"; 7 1 1 7 q q = 7 1 9 : : 1 ; 7 q 7 1 ; 7 6 1 1 7 1 e y 1 ; 3 1 7 ; 7 - 6 6 9 9 1 , 7 ; 1 6 ; 9 q q ; 9 ; 9 1 1 1 1 1 7 7 q q 7 ",
"    .                 .         . . .         . . .         .   . . . .   .     . .   .     .     . . .     .     .   .     .   ",
"                .                             .   .                               .   .     X   .   .                       X   ",
"                        X               .         .                             .                         .         .           ",
"                                                                                                                                ",
"                                                                                                                                ",
"                                                                                                                                ",
"                                                                                                                                ",
"                                                                                                                                ",
"                                                                                                                                ",
"                                                                                                                                ",
"                                                                                                                                "
};
