/* XPM */
static char *f00f039e5b5a463aaa5e2d24fe3847e5[] = {
/* columns rows colors chars-per-pixel */
"64 64 120 2 ",
"   c black",
".  c #393939",
"X  c #010101",
"o  c #F4827E",
"O  c white",
"+  c #040304",
"@  c #070707",
"#  c #2B2C2C",
"$  c #F4817D",
"%  c #FEFEFE",
"&  c #F2827D",
"*  c #232323",
"=  c #363737",
"-  c #1D1D1D",
";  c #0F0B0B",
":  c #2F2F2E",
">  c #F2847F",
",  c #F68481",
"<  c #100F10",
"1  c #313231",
"2  c #343534",
"3  c #555455",
"4  c gray99",
"5  c #5B5B5B",
"6  c #4D4C4D",
"7  c #F18683",
"8  c #878788",
"9  c #272728",
"0  c #131414",
"q  c #F3F4F3",
"w  c #3C3C3C",
"e  c #1C100E",
"r  c #D8D9D9",
"t  c #40403F",
"y  c #EBECEC",
"u  c #191A1A",
"i  c #C8C7C7",
"p  c gray60",
"a  c #908F8F",
"s  c #7F7E7E",
"d  c gray58",
"f  c #DFDFDF",
"g  c #B0AFB0",
"h  c gray66",
"j  c #BAB9B9",
"k  c #A19E9F",
"l  c #EA8381",
"z  c #ACABAC",
"x  c #C87372",
"c  c #271714",
"v  c #E27E7C",
"b  c #ED8E8A",
"n  c #3C2B19",
"m  c #848484",
"M  c #432828",
"N  c #653B39",
"B  c #8E5556",
"V  c #A96463",
"C  c #BFC0C0",
"Z  c gray27",
"A  c #F9F9F9",
"S  c #593F20",
"D  c #34221C",
"F  c #EEA635",
"G  c #744342",
"H  c #BC6C6A",
"J  c #696869",
"K  c gray22",
"L  c #EC7B79",
"P  c #BF5350",
"I  c #A4A5A5",
"U  c #EC9F2A",
"Y  c #626362",
"T  c #EB9E22",
"R  c #181718",
"E  c #6E6E6F",
"W  c #885C5B",
"Q  c #CECECE",
"!  c #7C6363",
"~  c #7F4B4B",
"^  c gray46",
"/  c #DD8D87",
"(  c #331C1B",
")  c #E5AC4D",
"_  c #B3B5B4",
"`  c #CE9E53",
"'  c #E5E6E5",
"]  c #DD8482",
"[  c #D2D1D2",
"{  c #D57B79",
"}  c #A05C59",
"|  c #8D642D",
" . c #CF6261",
".. c #644A28",
"X. c #765527",
"o. c #664344",
"O. c #BC8530",
"+. c #472F2A",
"@. c #8F8584",
"#. c #847271",
"$. c #664C4C",
"%. c #D08581",
"&. c #A06B68",
"*. c #98743A",
"=. c #543938",
"-. c #CA9031",
";. c #E09B2D",
":. c #98605F",
">. c #735B59",
",. c #7E5254",
"<. c #A43839",
"1. c #C07F7A",
"2. c #942828",
"3. c #781012",
"4. c #81181A",
"5. c #7C1315",
"6. c #E07271",
"7. c #B04344",
"8. c #55312F",
"9. c #AEA5A5",
/* pixels */
"                                                                                                                                ",
"                                                                                                                                ",
"                                                                                                                                ",
"                                                                                                                                ",
"                                                                                                                                ",
"                                                                                                                                ",
"                                                                                                                                ",
"                                                                                                                                ",
"                                                                                                                                ",
"                                                                                      X X + + X                                 ",
"                                                                                    X + c ..e X                                 ",
"                          X + @ + X                                                 X e *.) S X                                 ",
"                          X n *.n + X                                             X @ X.) F | + X                               ",
"                          X X.) ` S @ X                     X X X X             X + S ) F U | + X                               ",
"                        X + X.U F ` ..; X X         @ 0 - 1 . w w K : - < +   + ; S ` F T U | + X                               ",
"                          + S ;.T F ) | c + X < . E k g 5 5 5 3 3 3 5 5 3 t - @ n ` F T T ;.S +                                 ",
"                          X D O.T T F ` n < 3 g y 4 O Q K w . . . . . w Z 6 3 t - S -.U U O.D X                                 ",
"                          X ; X.;.U O.n * p y O O % O h # . . . . . . K K K w 6 6 * n O.-...@ X                       X         ",
"                            + c *.-.n 9 _ 4 O % O % O m # . . . . . . . . . K K t 6 # D ..e +     X X < = 5 s 8 8 ^ 3 0 X       ",
"                            X @ n +.u z 4 4 % % O O A Y 1 . . . . . . . . . K K K w 6 9 @ + X   X < 5 j y A y Q j f r *         ",
"                              X + @ s A O O O O O % y 6 2 . . . . . . . . . . . . K . Z - X X X u p q 4 i @.>.W $.h j ;         ",
"        X         + ; ; X X     X . f % O O O O O O f w = . . . . . . . . . . . . . K w t < X < p 4 ' @.~ V v 7 W i s X         ",
"      X @ 0 * t 5 m z g 6 + X X @ d O O O O O O O O i 1 K . . . . K . . . . . . . . . . t 1 @ J q Q >.} v > > { ! r w           ",
"        * _ C s ! >.! k Q 6 X   # r y f y 4 % % O O j : . . . . . 2 1 1 2 . . . . . . . K t u 8 i $.V 7 $ $ > } 9.g <           ",
"        - r i ,.{ { H G #.C : X J C k p k Q A % O O I # . . . . 1 # # # # 1 . . . . . . . w # : $.B l & & 7 H #.f 3             ",
"        ; g f W l o , { G p a ; s d ^ E s p r % O O p # . . . 1 # * * * 9 # 2 . . . . . . . = < N H 7 > v V ! r d ;             ",
"          E q #.x 7 o > H $.E u ^ Y d z ^ J g A O O a # . . = # # Y d s = 9 : K . . . . . . . - M B V :.W @.r z - X             ",
"          # f j B l o $ v ~ u * 5 C q h ^ 6 m y O O m # . . 1 - 5 i 4 O i w 9 = . . . . . . . # - @.k z i i 8 * X X             ",
"        X @ 8 q a W v , , x c - m A m ; 2 z ^ f O O m # . . 9 . m = k 4 O p * 2 . . . . . . . 1 u a h d E w < + X               ",
"          X - z y k ! :.V B e u C r * + * Y 6 f O O 8 # . = u 3 j * * [ O r 1 1 . . . . . . . = 0 - * 0 @ X                     ",
"            X - m [ Q z a J 0 * [ I @ @ @ X . ' O O a # . = 0 ; R @ @ p O y Z 1 . . . . . . . . u   X                           ",
"              X @ 9 t Z = R ; K i d + @ @ + 5 q O O k # . = 0 @ @ @ + m O ' t 1 . . . . . . . . - X                             ",
"                X X       X R J d g ; @ @ @ 8 ' y q z # w . u @ @ @ + a O Q : = . . . . . . . = - X                             ",
"                          X : C Y 8 - + + @ * # : = 2 0 * # - @ @ @ - i O m 9 . . . . . . . K 1 R + X                           ",
"                            t 8 9 ; e ( +.=.o.o.o.=.+.D e ; @ @ @ 0 a A _ 1 2 . . . . . . . = 9 K :                             ",
"                        X + < < +.W 1./ / b b b b b / / 1.&.o.D @ - 8 s 1 : . . . . . . . K : * a d @ X                         ",
"                        X @ D &./ b 7 o $ $ $ & & & $ $ o 7 b %.:.M @ < : . . . . . . . K : * Z ' r *                           ",
"                      X + =.%.b > $ $ $ $ & & & & & & & $ $ & & , ] ~ e 0 2 . . . . . 2 : 9 : j O q Z                           ",
"                    X X M %.> & o $ o & & & & $ $ & & & o $ $ $ & > 7 B ; - . . K 2 : # * 1 h 4 O 4 Y                           ",
"                    X ; &.7 $ & & o o o o o o o o o o o o o o o o o & l N @ # 1 : # * * 3 C A 4 O 4 J X                         ",
"                    X M ] o $ o & o o o o o o o o o o o o o o o o o & , H e 0 * * 2 5 h y O 4 4 % q 5 X                         ",
"                    X N 7 & > > o o o o o o o o o o o o o > o o o o & > v ( # a g r q O O O O % % r .                           ",
"                    + G 7 & P P L o $ $ o o o o o o o o L P P $ o o & & v ( 3 4 O O % % O O O % A h u X                         ",
"                    X 8.l L 2.3.<.L o $ o o o o o o o L <.3.2.L o o & o x e E 4 O O O O O O O % f 5 +                           ",
"                    X c x , P 4.5. .> o o o o o o o ,  .5.4.P > o $ & l G ; z O O O O O O O 4 q p - X                           ",
"                    X + N ] >  .7.6.> & o $ o o o $ o 6.7. .& & $ o l B ; 6 y O O O O O O O q j t +                             ",
"                      X @ N x 7 , , o o , , , o o & & & > , $ & & { ~ e # i % O O O O O % q j 3 ; X                             ",
"                        X + ( G V H x x H } } x v l > > > l v x B M ; . C 4 4 O O % 4 q r k 6 ; X                               ",
"                          X + + ; e c c e ; ; c M N G ~ ~ G 8.( ; R 3 I _ h I I h I p s 3 * @ X                                 ",
"                              X X   X @ 9 ; c +.N N M e @ + R # t 6 Z # - 0 < < 0 < < ; +   X                                   ",
"                                      + . 3 ,.] 7 7 ] :.D 6 m 6 - @ X                   X                                       ",
"                                      X @ 5 #.,.V V B ! d d 1 +   X                                                             ",
"                                        X < J a s @.k z s * + X                                                                 ",
"                                          X @ # 3 5 6 # ; + X                                                                   ",
"                                            X X X + X X X                                                                       ",
"                                                                                                                                ",
"                                                                                                                                ",
"                                                                                                                                ",
"                                                                                                                                ",
"                                                                                                                                ",
"                                                                                                                                ",
"                                                                                                                                ",
"                                                                                                                                ",
"                                                                                                                                "
};
