/* XPM */
static char *_31dde09ac3649fda83f77803a58b6e3[] = {
/* columns rows colors chars-per-pixel */
"64 64 103 2 ",
"   c black",
".  c #023152",
"X  c gray10",
"o  c #01192A",
"O  c #022F51",
"+  c #5ABCEE",
"@  c #181819",
"#  c #032F4E",
"$  c #001A2C",
"%  c #003C67",
"&  c #023151",
"*  c #9FD4E6",
"=  c #052946",
"-  c #5ABBEC",
";  c #031726",
":  c #032C4C",
">  c #041320",
",  c #030A0F",
"<  c #0A6E87",
"1  c #040F17",
"2  c #020407",
"3  c #048720",
"4  c #052B48",
"5  c #0E1C27",
"6  c #078420",
"7  c #0D1519",
"8  c #052137",
"9  c #05263F",
"0  c #087E1B",
"q  c #04811D",
"w  c #118C17",
"e  c #0C311B",
"r  c #033458",
"t  c #08551E",
"y  c #0B3B19",
"u  c #0A661A",
"i  c #021D27",
"p  c #04324D",
"a  c #053947",
"s  c #07731D",
"d  c #5EBEEE",
"f  c #042826",
"g  c #0E718B",
"h  c #0B421A",
"j  c #067B1C",
"k  c #0FB022",
"l  c #0D202F",
"z  c #0B4145",
"x  c #075340",
"c  c #0B7435",
"v  c #112516",
"b  c #03FE1F",
"n  c #0CB821",
"m  c #306C8C",
"M  c #09E022",
"N  c #164A62",
"B  c #147690",
"V  c #083F5D",
"C  c #074741",
"Z  c #0FC926",
"A  c #096E19",
"S  c #2E6483",
"D  c #2A5065",
"F  c #05385C",
"G  c #0A663B",
"H  c #07ED20",
"J  c #10A222",
"K  c #21596E",
"L  c #1B3642",
"P  c #1B667C",
"I  c #111A20",
"U  c #8ACCE9",
"Y  c #3992B8",
"T  c #085D31",
"R  c #0A9F2C",
"E  c #06F71F",
"W  c #0AD923",
"Q  c #0E9A21",
"!  c #0BD423",
"~  c #2BC237",
"^  c #3C7797",
"/  c #3B87AB",
"(  c #3E9CC4",
")  c #074C41",
"_  c #0C7820",
"`  c #5895B3",
"'  c #69AACA",
"]  c #82C8E7",
"[  c #77BAD8",
"{  c #4FA5D0",
"}  c #4FB0DD",
"|  c #094D16",
" . c #0CC020",
".. c #23C132",
"X. c #50EA54",
"o. c #8EBECF",
"O. c #152E37",
"+. c #0B783D",
"@. c #37A53B",
"#. c #47CF4B",
"$. c #4EE552",
"%. c #6E98AA",
"&. c #4CDC50",
/* pixels */
"                                                                                                                                ",
"                                                                                                                                ",
"                                                                                                                                ",
"                                                                                                                                ",
"                                                                                                                                ",
"                                                                                                                                ",
"                                                                                                                                ",
"                                                                                                                                ",
"                                                                                                                                ",
"                                                                                                                                ",
"                                                                                                                                ",
"                                                                                                                                ",
"                                                                                                                                ",
"                                                                                                                                ",
"                                                                                                                                ",
"                                                    2 5 L D S m m m K z O.7 2                                                   ",
"                                                I D / { - + + d d d ( B B < K L 1                                               ",
"                                            7 S ' U U d + + + + + d } Y B < g g P L ,                                           ",
"                                          L ` U * * ] + + + + + + + + - } / g < < g K 7                                         ",
"                                      2 D [ * * * U - - + + + + + + + + - - ( B < < g P l                                       ",
"                                      D [ * * * * d - - + + + + + + + + + - - ( g < < g m 5                                     ",
"                                    L [ * * * * ] - + + + + + + + + + + + + - - Y < < < g P ,                                   ",
"                                  1 ` * * * * * d - + - - - - - - - + + + + + - } B < < < B z                                   ",
"                                  D ] * * * * U d + + + - - - - - - + + d d d + + Y < < < g P 1                                 ",
"                                , ` * * * * o.' Y / ^ m m S S S S m m ^ ^ / Y ( { { B < < < g O.                                ",
"                                5 ' o.%.^ K N F . # # : : : : : : : # # # # & r V N N N K P g N                                 ",
"                              2 l D V # = = = 4 4 4 4 = = = = = = = 4 4 4 4 4 4 4 4 : : # r N N 2                               ",
"                          2 > 8 = = = 4 4 : # # # # # O O # # # # O # # # # # # : : 4 4 = = = = o 2                             ",
"                    2 , > 8 4 # O O & . . . . . . . . . . . . . O . . . . & . . . . . . O # # : : 8 1 2                         ",
"                , ; 9 : . . & . . . . . . . & O # O & . . . O a C p . . . . . O O O . . . . . & O . = ; 1 , 2                   ",
"            1 8 : . . . . . . . . . . . . . O a 6 G p & . . p R W G O . . . O x c a . . . . . . . & 9 $ $ o ; 1 2               ",
"        , 8 # . . . . . . . . p z a . . . . O c E W C O . O C W b R # . . O C Z E c O . . & . # # : 8 $ $ $ $ $ ; 1 2           ",
"      > 4 . . . . . . . . . O C Z R a O & & O 6 b H T O . O C M b R # . . O c E E c O . . & p ) T f $ $ $ $ $ $ $ $ ; ,         ",
"    $ # r F r & O # O . O . O C M H x O . . O x W ! ) O . . a k H c O . . O +.E Z C . . . # z 0 j f o $ $ $ $ $ $ $ $ o > 2     ",
"  ; O . r % % r z 3 G p . & . p 3 Z x O & . . & x x & . . . O C T a O . . O z c ) O & . . # t 6 t i $ $ $ $ i i $ $ $ $ $ > 2   ",
"1 : r % % % % % G H H G O & O . p z p & . . & & O O O # # # # O : # # O O & . O O . & # : 9 e h i $ $ $ o e u t i $ $ $ $ $ 1   ",
"8 r % % % % % % V R M c O . & . . . . # : = 9 8 8 l l 5 5 5 5 5 5 5 5 5 l l 8 9 9 = 9 8 $ $ o o $ $ $ $ o t 3 T i $ $ $ $ $ o , ",
"= F % % % V % % % V ) V % F r O : 9 8 5 I @ @ @ @ X X X X X X X X X X X X X @ @ @ @ 7 7 > ; ; o $ $ $ $ o h u f $ $ $ o $ $ $ > ",
"9 r % % +.n +.V % % % % % % O l I @ @ X X X X X X X X X X X X X X X X X X X X X X X X X X @ 7 7 > o $ $ $ o i o $ i f f i $ $ > ",
"o O . r G ! ! x % % % % r l @ @ X X X X X X X X X X X X @ @ @ @ @ @ @ @ X X X X X X X X X X X X @ 7 > o $ $ $ $ o e s _ e o $ 1 ",
"2 9 & O O z x F F % % # I X X X X X X X X X X X v v e e y y h h h y y e e v v X X @ X X X X X X X X @ 7 ; $ $ $ o f t t f o ; , ",
"  , 9 . . O O . O . . 5 X X X X X X X X v y | u A j 0 q q q q q q q q 0 0 j s u t h e X @ X X X X X X X 7 o $ $ $ $ o o $ o 1   ",
"    , 8 O . O p T x # 5 X X X X X X e t s q 3 3 6 0 j j q 6 3 3 3 3 6 q 0 0 0 6 3 6 j u h v @ X X X X X 7 ; i f i $ $ $ o 1     ",
"      2 > 9 O a J Q p = I @ X X X h j 3 6 6 0 s _ w J k k k k n n k k k k J w _ s q 3 3 6 A y X X X X @ > o y s h o o > ,       ",
"          2 > 8 a a . . 4 5 @ X X A 3 6 6 j u J Z M W Z ..~ ~ ~ ~ ~ ~ ..Z ! M Z Q u j 6 6 3 s v X @ 7 > o $ f y f > ,           ",
"              2 , ; 8 4 O O 9 5 I y s 3 3 s n b b ! 0 @.#.$.X.X.X.$.&.#.@.6  .b b n s 3 3 q t X 7 7 ; $ o ; > 1 2               ",
"                      , > $ 8 9 9 l f t s _ Q M b M w j 0 w w w w w 6 q 0 0 n b H J 0 0 u y 7 > ; ; > 1 , 2                     ",
"                              2 , 1 > ; i e y t 3  .! n J w w w w w w Q k  . .Q u | y v 7 , , , 2 2                             ",
"                                                  , v h t u A A A A A u | e 1 2 2                                               ",
"                                                                                                                                ",
"                                                                                                                                ",
"                                                                                                                                ",
"                                                                                                                                ",
"                                                                                                                                ",
"                                                                                                                                ",
"                                                                                                                                ",
"                                                                                                                                ",
"                                                                                                                                ",
"                                                                                                                                ",
"                                                                                                                                ",
"                                                                                                                                ",
"                                                                                                                                ",
"                                                                                                                                ",
"                                                                                                                                "
};
