/* XPM */
static char *_21f38f9d7824b06b928182774295834[] = {
/* columns rows colors chars-per-pixel */
"64 64 101 2 ",
"   c black",
".  c #72C448",
"X  c #72C347",
"o  c #71C347",
"O  c #2B2B33",
"+  c #1B1C3B",
"@  c #72C447",
"#  c #72C547",
"$  c #070215",
"%  c #292932",
"&  c #020505",
"*  c #050909",
"=  c #1E1E26",
"-  c #22222A",
";  c #0C1F16",
":  c #050D0B",
">  c #6FBF48",
",  c #1A432A",
"<  c #27282F",
"1  c #70C248",
"2  c #13121B",
"3  c #1B3B26",
"4  c #091711",
"5  c #234B2D",
"6  c #59A444",
"7  c #0A071A",
"8  c #6BBC48",
"9  c #69B948",
"0  c #215533",
"q  c #0C0E14",
"w  c #538B3A",
"e  c #6AB346",
"r  c #172330",
"t  c #355566",
"y  c #0E251A",
"u  c #529F44",
"i  c #25252D",
"p  c #2E4C5F",
"a  c #295C31",
"s  c #5DAB47",
"d  c #162A1E",
"f  c #294355",
"g  c #2C485B",
"h  c #62B248",
"j  c #4A9542",
"k  c #367439",
"l  c #253F4E",
"z  c #304F61",
"x  c #17191E",
"c  c #2E673A",
"v  c #123220",
"b  c #6AB645",
"n  c #344F3C",
"m  c #223340",
"M  c #212938",
"N  c #385B3E",
"B  c #417E3C",
"V  c #1F2F26",
"C  c #63AF46",
"Z  c #459567",
"A  c #2F7E47",
"S  c #223949",
"D  c #478F41",
"F  c #45893E",
"G  c #27463F",
"H  c #5E9E40",
"J  c #599443",
"K  c #0E171D",
"L  c #395B6C",
"P  c #17162E",
"I  c #64B448",
"U  c #417B58",
"Y  c #1A613D",
"T  c #177545",
"R  c #375A2D",
"E  c #504E5E",
"W  c #64A945",
"Q  c #4D9745",
"!  c #2C4227",
"~  c #3D853F",
"^  c #63B584",
"/  c #50A170",
"(  c #3F7337",
")  c #1D2E3C",
"_  c #3D642F",
"`  c #426740",
"'  c #2A3A38",
"]  c #2E8859",
"[  c #696A73",
"{  c #616073",
"}  c #C8C7D2",
"|  c #D6D6E1",
" . c #E0E0EA",
".. c #436D32",
"X. c #38596A",
"o. c #53556E",
"O. c #464353",
"+. c #92919E",
"@. c #7E7D8A",
"#. c #AEADB8",
"$. c #ADACB8",
/* pixels */
"                                          * &                                     * *                                           ",
"                                      : 5 k c v *                             : 3 c k , :                                       ",
"                                    & 0 h . 1 u , &                         & , u 1 # h 0 &                                     ",
"                                    ; j # o o o k *                         : k o o o # j ;                                     ",
"                                    y Q # X @ 9 5 &                         & 0 9 X X # Q y                                     ",
"                                    : 0 6 8 . u y                             y u # 8 6 0 *                                     ",
"                                      : v ~ X h , &                         & 5 h . ~ v :                                       ",
"                                        & a 8 X B 4 * 4 v 5 a c c a 5 v 4 * 4 B o 8 a &                                         ",
"                                          3 C # s 0 k u h 8 1 o o 1 8 h u k 0 6 # C ,                                           ",
"                                          ; j # > ~ s # @ X X @ @ @ . . # s ~ > # j y                                           ",
"                                        & v A 1 @ 6 j X X X X . . . . @ . j 6 @ 1 A v &                                         ",
"                                      * 5 Q A b # > C 1 X . . . . . . X 1 C 8 # 9 A Q 5 *                                       ",
"                                    : a s X j D u u > X X . . . . . . X X > u u D j X C a :                                     ",
"                                  * 0 h @ X 8 6 6 b o X X . . . . . . X X o 9 6 6 > X . h 0 *                                   ",
"                                & , s . . X X . @ X X . . . . . . . . . . o @ . @ X o o . 6 , &                                 ",
"                                y D o o . . @ X X @ @ . . . . . . . . . . @ . X X X . X o o D ;                                 ",
"                              & a 8 @ X . . . . . . . . . . . . . . . . . . . . . . . . . @ 9 a &                               ",
"                              ; D . X X . . . . . . . . . . . . . . . . . . . . . . . . . X @ j ;                               ",
"                              , h . . . . . . . . . . . . . . . . . . . . . . . . . . . . @ @ h ,                               ",
"                            & c 1 @ . . . . . . . . . . . . . . . . . . . . . . . . . . . @ X > c &                             ",
"                            : F . X . . . . . . . . . . . . . . . . . . . . . . . . . . . . X # F 4                             ",
"                            ; u # X @ @ . X . . . . . . . . . . . . . . . . . . . . . . . . . # u ;                             ",
"                            v s # # # # . o o o . . . . . . . . . . . . . . . @ @ o o @ # # # # s v                             ",
"                            3 h b w w H e 1 # o @ . . . . . . . . . . . . . . X o . 1 b H w w b I 3                             ",
"                            , 9 w q 7 K d R H 1 @ o o . . . . . . . . . . o o . 1 H R V 2 7 q w 8 ,                             ",
"                            , 9 w 7 $ $ $ $ K _ e . o . . . . . . . . . @ o @ e _ x $ $ $ $ 7 w 9 ,                             ",
"                            3 h H 2 $ % O 7 $ $ ! W @ X o X @ . . . . o X # W ! $ $ 7 O % 7 2 H I 3                             ",
"                            y 6 e d E } } [ $ $ $ 3 W @ 1 X @ . . . . o @ C 3 $ $ $ [ } } E d e 6 y                             ",
"                            4 D o R +. . .#.2 $ $ $ ! b @ X X . X X o @ b 5 $ $ $ 2 $. . .+.R 1 D 4                             ",
"                            & k . w [ | | @.7 $ $ $ 7 ..1 o . . X X o o ..7 $ $ $ 7 @.| | [ w . k *                             ",
"                              , 9 b ! O.E P 7 7 7 7 $ ; 6 # o . @ o . 6 ; $ 7 7 7 7 P E O.! b 9 5                               ",
"                              4 j # w q { { + + + P 2 $ _ . 1 . o X . _ 7 2 P + + + { { q w # Q ;                               ",
"                                0 8 > R E o.+ + + + + P V e X . o @ e V P + + + + + o.E R > 8 0                                 ",
"                                4 F . e n + + + + + + + r J # X o # J r + + + + + + + n e . F 4                                 ",
"                                  3 s # C n + + + + + + + B # X o @ B + + + + + + + n C # s 3                                   ",
"                                  : a 9 # e ` M + + + + + ` . X o 1 ` + + + + + M ` e # 9 a &                                   ",
"                                    4 B > @ > J n M + + + N > X o > N + + + M n J > @ > k :                                     ",
"                                      ; F 1 X # 9 J N ' M N > X @ > N M ' N J 9 . @ 1 ~ ;                                       ",
"                                        y F 1 o @ # > e H W 1 . X 1 W 6 e > @ X X > F ;                                         ",
"                                          ; B 8 @ o o X @ @ o . o o @ # @ o 1 @ 8 B ;                                           ",
"                                            : a s o @ o X . . . . . X o o @ o s k 0 *       4 ;                                 ",
"                                              & v B I o # . @ o @ X @ . o I B v 4 G ;       , G &                               ",
"                                                  : , ( 6 9 . # # . 8 6 ( 3 :     4 , ; ; y 5 :                                 ",
"                                                * 2 x = V 5 ( w w ( 5 V = = 2 *   y T T T Z U *                                 ",
"                                            q x i % % - = - - < < - = = i % % i V Y Y A Z ^ ^ V                                 ",
"                                        * x < O O % < % % i - - - i i < O % % O G c n N / ^ Z <                                 ",
"                                        x % O O O < = < O O O % % % O O % - < % ' N V V Z / n *                                 ",
"                                        2 = i O O % - i O O O O O O O O i - % % % ' , 5 A c *                                   ",
"                                      & d - = % O - x < O O O O O O O O < x - O G Y Y T ] ] , :                                 ",
"                                      & 5 3 = i i q = O O O O O O O O O % = q G A ] T Z ^ U Y 0 :                               ",
"                                        : 4 q 2 q 2 < % O O O O O O O O O < 2 V 5 3 T / ^ U : , y                               ",
"                                                2 < O O O O O O O O O O O O < 2   d ] U Z U *                                   ",
"                                                2 i < % % % % % % % O O % < < 2   , / 5 Y Z 4                                   ",
"                                                & = - - = = - = - - - - = - = *   0 / n c Z 4                                   ",
"                                                * M < - i i i i i i i i i M M :   3 U d 3 5 &                                   ",
"                                                : l f l S ) m m m m ) S l f f :   & *                                           ",
"                                                * l p f z g g g g g g z l p f :                                                 ",
"                                                q S f l z L t r r t L z l f S q                                                 ",
"                                                K f p p t L t K K t L t p p f K                                                 ",
"                                                r p p z X.L t K K t L X.z p z r                                                 ",
"                                              & m t z g g p t r r t p g g z t m &                                               ",
"                                              & r m ) l G S f r r f S G l ) m r &                                               ",
"                                                & & & ; 3 K q * : q K 3 ; & & &                                                 ",
"                                                                                                                                "
};
