/* XPM */
static char *f9946f163d9a4871e10027aca4be6176YASnFqUMIHLX2SbF[] = {
/* columns rows colors chars-per-pixel */
"64 64 192 2 ",
"   c #0B0F18",
".  c #0D141E",
"X  c #14161E",
"o  c #13181E",
"O  c #1D181E",
"+  c #080F21",
"@  c #0C1423",
"#  c #0D1924",
"$  c #0C1629",
"%  c #0E1A2A",
"&  c #121624",
"*  c #141A25",
"=  c #1A1C25",
"-  c #111729",
";  c #141C2B",
":  c #1A1E2C",
">  c #151E31",
",  c #191E31",
"<  c #211C22",
"1  c #1B2024",
"2  c #15212E",
"3  c #1B222D",
"4  c #162132",
"5  c #1C2433",
"6  c #1E2936",
"7  c #16223A",
"8  c #1C2639",
"9  c #1E2A3B",
"0  c #22242D",
"q  c #212634",
"w  c #232A35",
"e  c #282F37",
"r  c #212539",
"t  c #232B3C",
"y  c #292E3D",
"u  c #2F3035",
"i  c #24313E",
"p  c #2B313D",
"a  c #30323E",
"s  c #1F2C43",
"d  c #242E41",
"f  c #2A2E43",
"g  c #212C48",
"h  c #253244",
"j  c #2B3444",
"k  c #2E3A46",
"l  c #253449",
"z  c #2B3549",
"x  c #2C3A4B",
"c  c #313643",
"v  c #333945",
"b  c #393C47",
"n  c #303548",
"m  c #343B4C",
"M  c #393E4D",
"N  c #353D51",
"B  c #383F51",
"V  c #353F5A",
"C  c #35424C",
"Z  c #3B424E",
"A  c #2F4054",
"S  c #354254",
"D  c #3C4354",
"F  c #3D4955",
"G  c #36455A",
"H  c #3D455A",
"J  c #37485C",
"K  c #3D4A5C",
"L  c #3B4761",
"P  c #3D4B61",
"I  c #3F4D68",
"U  c #414654",
"Y  c #424A56",
"T  c #41475A",
"R  c #434B5D",
"E  c #494F5E",
"W  c #46515D",
"Q  c #4A515D",
"!  c #50535C",
"~  c #444D62",
"^  c #484F62",
"/  c #444E6A",
"(  c #494E6A",
")  c #455165",
"_  c #4A5364",
"`  c #4E5867",
"'  c #45536A",
"]  c #4B556B",
"[  c #46586B",
"{  c #4C596D",
"}  c #505766",
"|  c #545A66",
" . c #585B64",
".. c #51566B",
"X. c #525B6D",
"o. c #595F6C",
"O. c #475571",
"+. c #4B5672",
"@. c #465B75",
"#. c #4D5B74",
"$. c #465C7A",
"%. c #4E5D79",
"&. c #505772",
"*. c #525C74",
"=. c #595F74",
"-. c #525E7A",
";. c #585F7A",
":. c #5B616D",
">. c #4E6075",
",. c #47617D",
"<. c #4D627D",
"1. c #4E687F",
"2. c #546175",
"3. c #5A6375",
"4. c #5F6877",
"5. c #54637C",
"6. c #5A647C",
"7. c #56687B",
"8. c #5B697D",
"9. c #606372",
"0. c #636A77",
"q. c #606679",
"w. c #636B7C",
"e. c #68707D",
"r. c #456280",
"t. c #4D6582",
"y. c #4E6A85",
"u. c #4D6C88",
"i. c #536581",
"p. c #5C6681",
"a. c #546A84",
"s. c #5B6C84",
"d. c #536C8A",
"f. c #5A6E89",
"g. c #577086",
"h. c #5D7287",
"j. c #55718C",
"k. c #5A728A",
"l. c #5A718A",
"z. c #5F738B",
"x. c #5F748F",
"c. c #5C728B",
"v. c #567391",
"b. c #557793",
"n. c #597391",
"m. c #5C7490",
"M. c #597490",
"N. c #587A96",
"B. c #606C84",
"V. c #646D84",
"C. c #686F82",
"Z. c #686F89",
"A. c #677383",
"S. c #637285",
"D. c #647284",
"F. c #697184",
"G. c #6A7284",
"H. c #617389",
"J. c #62748A",
"K. c #647589",
"L. c #64748B",
"P. c #66778B",
"I. c #677689",
"U. c #61758D",
"Y. c #66758C",
"T. c #63738A",
"R. c #6A758B",
"E. c #6C758C",
"W. c #67798F",
"Q. c #68788F",
"!. c #6D798C",
"~. c #71778D",
"^. c #747C8E",
"/. c #677790",
"(. c #6B7590",
"). c #637992",
"_. c #6A7C92",
"`. c #6C7D91",
"'. c #6E7E95",
"]. c #6D7D95",
"[. c #717892",
"{. c #747C93",
"}. c #737D98",
"|. c #6C8099",
" X c #6F839C",
".X c #738297",
"XX c #758096",
"oX c #748192",
"OX c #788497",
"+X c #708298",
"@X c #7C849B",
"#X c #7A8AA1",
/* pixels */
"= * - , j y - ; : 5 4 > j j 2 * = w j % 9 l l j h l s l h 5 . = = * ; @ t j t i i t z 8 > d 6 3 * 0 4 4 d l z 9 8 7 7 l g ; & : ",
"* 3 j X.X.w._ 5 ` 8.H 3.6.F.X.@ 0 0.R S W._.K.s.s.K.H.K.K.A.U   * * 4 ] 6.2.w.2.2.2.p.V.{ z 8.w 3 U R 5.].K.Y.8.2.%.<./.].8.y & ",
"* M .._ _ ^ 3._ j N { *.*.X.w.y ; D P U.x.d.<.f.f.a.1.<.a.`.!.v @ t w.6.*.#.' *.*.2.5.p.}.5.S 4 : D K.z.d.k.#.f.a.k.f.k.|.#X2.> ",
": W _ _ ] ^ _ _ t H 2.#.*.*.] 4 ; K U.1.t.d.f.a.i.a.d.j.t.5.S.z @ ` [.#.-.-.5.5.7.5.i.-.#.(.5.; ; 8.a.a.j.y.d.g.f.f.d.j.m.U..Xj ",
"- M _ { ^ ^ _ { D ) *.#.#.#.9 ; 9 s.5.f.u.n.d.a.d.f.d.y.<.<.s.h 8 R.*.#.i.i.5.-.5.7.-.O./ p.XXh h 8.k.d.t.u.d.y.n.j.v.j.d.<.Q.h ",
"; j ^ ] ] ] ] K _ K *.-.*.9 2.N 8 s.a.f.d.u.d.$.f.d.t.,.t.5.8.9 9 B.6.5.i.i.-.p.-.I +.#.#.#.V.l 4 s.a.y.y.r.d.).j.j.d.t.y.k.6.d ",
"t ^ H +.~ ] ) ' ' ~ L #.g ' w.h ; 8.7.a.y.d.<.c.i.t.t.y.a.7.2.8 4 2.6.*.6.%.5.@.' *.] #./ P *.9 5 5.7.k.y.t.k.f.a.1.<.a.a.7.) 8 ",
"5 H N +.] ~ ~ ) ' ' +.g z #.8.j ; 2.s.<.a.a.f.<.a.i.a.a.<.7.*.4 ; 3.*.+.-.5.%.' ] ] ] ] ' ~ ` w ; 2.s.d.a.k.5.5.5.a.a.i.%.] X., ",
"4 m ' ] / P ~ ) ) ' *./ N *.3.j ; 2.s.<.f.f.i.a.s.i.d.a.i.s.*.: 2 2.2.-.-.#.#.' ) ' ' ~ ] ] ..2 4 3.8.a.i.a.5.6.6.7.i.%.+.*.X.: ",
"; D 6.~ ~ ~ ' K ) ) ' 5.V { 8.j ; *.5.f.<.a.f.a.a.a.a.f.a.H.{ % 9 { #.6.*.-.{ ' ] ' ' ' ] _ ` w : 6.7.5.i.s.7.5.5.%.#.%.-.*...q ",
"- ` ^ ^ H K ) ^ ) K ^ ] ^ ~ 3.j @ K s.a.d.d.t.d.a.a.d.d.i.s.~ ; : ] 5.+.*./ ' ' ' ' / ' ] ( _ w 5 2.5.i.i.i.#.-.5.%.<.%.5.6.*.5 ",
"2 D X.^ ^ { R R R ) ) ] ] ^ D 5 - 8 @.a.d.y.a.i.a.j.n.<.<.H.G ; : z ;.+./ ' ] #.' ] ] / ( ] ^ 5 4 { 5.<.t.%.%.7.5.5.5.5.7.' N : ",
": p ^ ] ~ ^ R R H _ ^ T ~ R Z 5 2 S G <.d.a.f.f.f.a.t.t.f.) 9 - 5 N N +.] #.{ ) ) ] ^ ~ ( ( D 2 ; ] 5.#.#.%.5.5.5.] %.O.P K T 5 ",
"* W D _ ^ R ) _ _ E R H _ _ } w 3 e.3.J a.z.s.S.s.8.a.<.A m :.e * _ n D ..*.` _ _ ) ^ ] ] R j * * D *.6.5.5.*.X.*.{ *.) K 2.o.q ",
"* Q } f R ^ D Z F D N R D E M = 0 ! 0.j S ) ) H ~ ~ h S X.X. .u * e Y y j E Y E Y F D R U c 0 o = w D ] ` R R Y D E H S X._ p = ",
"* 3 2 ; , 4 5 2 2 : 5 , , 5 & = = 3 3 - % ; # - @ ; ; t 5 2 3 = = 3 ; 4 - : 5 3 2 2 : ; ; ; = = = & : 5 ; @ - & = ; 4 : 4 2 = X ",
": & & 2 : 5 4 @ - @ > t 4 ; 2 * * w 4 4 4 5 2 ; # ; $ 8 8 t * * = X ; - $ 4 5 ; t 2 9 d 4 ; * = : & - ; t y d 5 , : ; : 4 ; q : ",
"& y M & j R 4 k X.^ D F n M X.5 5 w.^.!.C.w.{ F R _ 2.!.!.!.4.w * E 3.2.) G G D X.8.5.5.!.X.y * & j ..q.3.^ R D D D R ^ E U M 5 ",
"3 E U F j h 2.8.{ X.{ _ j 6 ` y 4 !.!.V.p.5.*.{ 3.6.p.s.p.V.OXz t !.Q.]. X/.z.5.>.@.a.a.7.Y.q.& 5 q.3.R D R ^ ^ ^ ^ ^ E E E Y 5 ",
": Y Y : j 3._ R H G R _ _ m n 4 5 C.*.-.-.] +.5.] 5.-.-.-.#.V.z 4 !.H.a.a.1.<.a.a.a.a.t.i.5.*.5 t q.` H ^ ^ H ^ ^ R ^ E E _ _ w ",
"- D D y 3._ H K ) ) ) R _ ) S j - 2.-.-.#.+.-.#.#.5.#.#.-.#.#.h 9 s.a.t.y.d.t.t.a.t.d.d.t.#.*.t t ) D _ R K ~ ) ~ R ^ ^ E E E 5 ",
"; t m X.) K ) K R K K ' ' { H ; % ) *.*.+.%.5.#.%.-.5.i.-.5.#.9 $ ' i.a.y.f.a.a.i.i.t.$.@.5.5.8 5 _ R ^ K ^ ) K ) ^ ^ ^ R R R q ",
"; 4 8._ ) J ) ) P P ~ ' ~ R R 4 ; S *.*.-.-.%.{ %.2.5.%.+.*.2.j $ R 5.5.i.i.5.5.5.#.@.%.#.*._ , 4 ) H R ) ^ ~ ~ P ~ ~ R ^ E D : ",
"; ) 3.K P ) P J G P { P G K _ h @ z 2.#.%.%.' ) @.5.5.%.5.*.2.h @ E 2.5.5.%.5.*.] 2.%.@.#.*.T & 5 K R ) ~ K ~ ~ ~ ) ~ G ^ E D - ",
"8 { ' ~ ~ ) J G P P ~ K K H ^ j @ k *.*.%.*.' ' { 5.5.-.-.*.2.j * } 6.5.*.-.#.{ ' ' *.#.*.=.T & 5 R ^ ~ R ~ ~ ~ ~ ) R ~ R R D - ",
"% K ) ~ ~ P P P P J ~ R ^ R ^ t @ _ 3.*.-.#.#.%.5.7.%.-.*.#.X.5 ; } 2.*.@.@.#.*.] ] *.#.*.*.U & r R R R ~ ~ ~ P ) ^ H R R R D - ",
"4 R ) ~ ~ ~ ~ ) K K K H R R ^ 5 , ] *.*.p.-.5.5.-.%.%.-.-.-.*.d 5 ..#.@.%.#.#.] #.] %.%.-.*.R : r _ R E R R ^ _ H ~ ~ R D D M ; ",
"; D E R R ~ K J K R K R R R _ 5 ; ^ 6.-.-.5.5.%.%.#.%.-.#.*.*.d - _ #.@.#.O.%.*.*.@.%.#.#.' D : : _ R _ R ^ ~ ~ ^ T H D D R D ; ",
"4 D E R H R E H R R D T D Y E q : D *.;.5.-.-.*.-.*.-.-.-.-.X.t : ) *.@.%.%.2.#.#.@.%.%.%.) D 5 : _ E E E ^ ^ R _ H D D D Z b q ",
": n E U D H R R R R D R Y Y U q : D H ] 6.*.*.#.*.*.*.*.-.*._ 5 * D 2.2.-.*.*.{ { #.%.%.#.R D q & F _ E R R R R D D D D Z U c & ",
"& w U Y Y U D B z n D Y U Z y * * F E D R ' X._ { { { ' .._ U w o a X.X.) ~ _ *.X.3.X.{ ) D M w * c _ _ E U D D D D M M E | M & ",
"= * 5 5 t 5 4 : : : 5 q q q = = = o w y 5 5 5 t 6 9 9 9 t 5 q * = & w 4 ; : ; 5 j j y 9 8 : q = * * 5 4 t 5 : ; 5 ; ; 5 y q * = ",
": . : , 5 ; @ * * - - , : . 3 * = 0 3 4 $ $ ; @ @ : 5 4 $ : 3 * * ; : , > 8 4 4 ; > @ $ 4 : * : * ; 5 4 + - : 5 : : : @ @ * : = ",
"& c X.C.~.C...R R E ] F.G.Y . * = U W j G 7.' { 2.A.#.B.{ D o.w - m ..3.X.X.{ _ _ R D D ] 3.3.q 3 X.X.B j _ A.3.3.3.3._ m j :.3 ",
"2 q.@X}.V.5.2.2.2.5.6.s.R.OX_ * 2 M z @.x.f.s.2.8.5.7.>.7.6.H t , X.X._ ] _ R _ ) ) ] _ E ^ q.y w 3.j j E.[.6.*.X.' -.6.V.3.D t ",
"5 A.Y.-.O.@.5.>.#.#.-.#.@.V.XXd > N s.x.1.t.<.f.5.5.@.5.<.%.2.9 t q._ D _ ^ H ) _ ) R ^ _ R ` d > m N E.p.#.#.{ *.#.*.] / 6.] @ ",
"9 B.s.%.%.5.<.[ %.<.%.-.5.' Q.G $ *.a.<.t.y.f.i.i.a.i.a.<.@.5.j ; ^ E ^ ^ ) { ) K ) _ ^ R ^ R t - t [.6.&.O.+.*.] #.+.*.-.*.*.> ",
"$ { 5.#.%.%.<.5.5.5.#.#.-.%.6.z > 5.5.t.j.d.t.f.i.a.t.%.5.%.*.z > ^ E _ ) ~ ' ~ ~ K ~ ~ R ] R ; : 3.Z.#.] -.5.{ ] #.-.] +.*.R : ",
"% H 5.#.-.%.] { %.%.5.5.#.5.*.9 7 *.f.a.f.d.i.a.f.%.i.i.%.5.3.5 > _ ^ ^ ] ) P P ) K K ^ R ^ R : t !.{ ] -.] ~ ) ' 2.] *.*.3.R w ",
"* m 3.*.*.#.' ' #.-.-.*.*.-.*.d 4 8.s.a.a.a.a.i.5.7.5.5.5.{ *.t 4 ^ _ _ ~ ~ ) ) K ~ ) ) _ R ^ , y q.' *.*.) ~ ) { { #.*.*._ W k ",
"* R 3.#.5.*.#.] #.5.-.-.-.*.3.m : ' f.5.t.a.i.5.5.5.i.<.%.] *.j - R _ R ) ~ ~ K ~ ) ) ~ ^ ^ R 5 t X.{ #.] ] ' ' { #.*.] *.' X.6 ",
"5 ` 2.*.-.%.5.#.7.%.5.5.-.+.6.j @ ~ a.i.y.y.i.i.7.5.5.%.5.2.2.y - D ^ E _ ~ ) ) ' ' ~ ~ ^ ^ R : 5 ..] #.*.*.{ { 2.#.] #.#._ ` ; ",
"2 { *.-.%.%.5.2.5.7.#.-.O.-.2.8 $ I 5.<.t.y.t.a.<.<.t.<.<.5.] ; 4 R _ R ^ ^ ) ] ) ~ ^ ] ^ D D 5 5 ..{ #.*.*.#.2.#.] *.+.*.-.D - ",
"4 ' 5.-.-.%.5.5.5.@.%.#.-.p.z $ > { f.t.d.d.t.<.<.<.i.t.<.<.' ; 4 Y _ R ^ _ _ ^ ~ ~ ^ ^ D j M w @ ^ &.*.-.-.+.#.] ] -.O.*.{ d ; ",
"2 H 5.#.-.-.%.2.%.%.%.#.5.z t 5 4 ] s.<.t.t.<.<.5.5.i.<.<.7.{ t 2 F _ E _ _ ^ R ~ ] E D D R W p - _ =.*.*.#.{ { #.#.+.*.*.D N q ",
"* j ] *.6.6.2.2.2.' *.*.z j A.p ; E 3.5.5.5.7.8.6.7.5.<.5.5.` t * p U E _ ^ H H R R D N _ ..Y ; 2 Y *.*.{ { { ' { ' &.{ T D E 2 ",
"* 3 M ^ _ ` E Y U R R f f 9.o.u = b _ X.>.[ ) ) ) ^ ~ K H ^ D q : p Z R ^ ^ R ^ ^ H m N ` E p @ : v _ X.X..._ R ` ] *.^ n D U 3 ",
"= * = y w t q ; 5 t y ; 3 y u = = 3 2 t 9 4 2 2 5 4 > % $ 5 w = = q t q t y t d t t t > y t : = * : w y f 5 2 # 2 p 5 8 : 2 e 3 ",
"= * & : - - @ > & - @ : : . * * * & ; - - % . # . @ - > ; , @ * = = ; @ $ % $ % % $ $ % ; @ 3 = * * - - @ @ * @ . * @ & - & * * ",
"* c X.} R y _ ^ ] =.R j M v v w * } q.X._ _ R Z C W ` X.] 3.w.q : :.D l [ 2.{ { ' ' { %.5.A.w.y 3 o.w.=.R j D Y Y M Y ^ =._ : : ",
"3 _ E _ D ..^.G.A.3.w...j p E 5 5 F.6.*.&.8.R.oX!.w.*.5.*.{ {.B ; m { K.g.d.h.h.z.z.f.d.f.+XOXj t {.R.p.6.*.3.2.X.{ 6.*.p.C._ - ",
"* Z E m D 3.^ _ R R D R ^ U v * 4 3.{ ] #.+.' { #.#.-.*.*.] =.y > 8./.g.y.g.1.d.d.d.y.d.<.5.S.h t !.-.+.+.5.@.{ #.#.] +.+.#.C.t ",
"@ p j j H D H H R R H H D R ` j - E +.' +.+.#.@.#.%.#.' +.-.X.t 9 s.7.d.u.u.j.g.d.d.y.d.f.1.7.d % #.-.-.%.%.O.%.@.' #.+.#.] { h ",
"5 F j E R D ^ H H R ~ H T D R q 4 H *.#.+.#.*.*.5.%.O.-.#.#...8 $ [ 1.j.b.N.j.y.a.j.y.y.a.i.*.7 5 H -.-.-./ / / @.' -.+.+.-._ : ",
"@ p E D D H H H H H H H ^ D R t 5 C ) *.#.%.%.%.' @.+.-.] { X.4 > ) z.g.u.u.@.,.i.f.f.a.i.7.{ > 4 n ] *.*./ ] *.*.] +.-...X._ * ",
"3 Z D D E D R H H H H R D H R 2 3 F R *.#.5.*.@.#.@.#.#.#.{ W 2 ; #.z.y.d.u.d.k.f.5.i.i.5.5.X.w 3 c D *.&.*.{ { { *.*.*.X...Z * ",
"; M D D R H H H H H R R D D T 5 * k { 2.@.+.*.*.%.@.+.%.] X.W # 2 ' a.f.j.M.d.a.a.a.i.i.a.7.X.t * w r R *.*.X.X.X.X.{ { ..R 3 = ",
"* M Y D H D H H H R H N D D D w * F 2.*.-.5.#.@.#.@.+.#.] *._ ; % 2.z.g.j.j.d.a.a.i.i.i.7.5.) 5 * _ X.m ] *.*.X.) ] *.) D F W 3 ",
"& v Y R T D D D H B D D B D T y # { *.*.i.+.%.#.+.@.#.-.*.5._ 2 5 7.f.d.j.y.y.y.<.i.d.y.<.5.K ; y 3.*.V.P ~ { ' #.{ K s ~ R v 2 ",
"* v Y Y D H D B D m N D m M D q & D 6.*.+.-.#.@.@.#.-.-.-.5._ 5 5 { a.1.y.y.y.t.t.t.t.<.@.5.J 9 4 { *.#.5.G ' { ' J x %.V.8.) 5 ",
"* v Y Z m D D m n D D D M M j ; : 8 ^ 5.*.#.#.#.*.*.*.#.&.*.R 5 ; H 8.<.,.y.a.<.5.<.%.%.1.s.H 4 : ' *.' #.@.S 2.{ x `.s.5.' *.6 ",
"* p Y U D D D D N D n y q c v 2 : _ H ^ 6.{ 2.3.3.3.5.*.*.*.H w * w ) 2.a.a.7.i.%.5.7.s.%.G y 4 t m { -.] { H m S ' 5.' ' X.^ 5 ",
"* w M U D D m m m n m D c b Z 3 * :...d D ] R R R R _ _ ] _ M w = X e D { { { *.*.8.] S G ] Y = q D R ..*.X._ j t D 3.] ] R n 5 ",
"* & 3 w y y 5 r y q 2 p w 3 3 = * w j j 5 : ; # # ; 4 8 y y q = O < * @ 5 8 t 5 y j t 8 z M M 0 : y r f f f 5 e p 2 j m t 4 v ; "
};
